# xmcd
#
# Track frame offsets: 
#        150
#        9413
#        23173
#        39570
#        55460
#        67487
#        88537
#        98384
#        110183
#        123011
#        134809
#        149681
#        161968
#        175716
#        186512
#
# Disc length: 2646 seconds
#
# Revision: 0
# Processed by: cddbd v1.5.2PL0 Copyright (c) Steve Scherf et al.
# Submitted via: ExactAudioCopy v1.1
#
DISCID=df0a540f
DTITLE=Various Artist - Country Music of Your Life: Satin Sheets (Dis
DTITLE=c 1)
DYEAR=2015
DGENRE=Country
TTITLE0=Charley Pride - Kiss an Angel Good Mornin’
TTITLE1=Lefty Frizzell - Saginaw, Michigan
TTITLE2=Ronnie Milsap - Any Day Now
TTITLE3=Willie Nelson - Always on My Mind
TTITLE4=Eddy Arnold - Make the World Go Away
TTITLE5=Marty Robbins - El Paso
TTITLE6=George Hamilton IV - Abilene
TTITLE7=Don Gibson - I Can’t Stop Loving You
TTITLE8=Jim Reeves - Four Walls
TTITLE9=Tammy Wynette - He Loves Me All the Way
TTITLE10=Waylon Jennings - Luckenbach, Texas
TTITLE11=Charlie Rich - The Most Beautiful Girl
TTITLE12=Mac Davis - Baby Don’t Get Hooked on Me
TTITLE13=Porter Wagoner - Green, Green Grass of Home
TTITLE14=Elvis Presley - He Touched Me
EXTD=
EXTT0=
EXTT1=
EXTT2=
EXTT3=
EXTT4=
EXTT5=
EXTT6=
EXTT7=
EXTT8=
EXTT9=
EXTT10=
EXTT11=
EXTT12=
EXTT13=
EXTT14=
PLAYORDER=
